# xmcd CD database file
#
# Track frame offsets:
#	150
#	14393
#	33413
#
# Disc length: 739 seconds
#
# Revision: 0
# Processed by: cddbd v1.5.1PL2 Copyright (c) Steve Scherf et al.
# Submitted via: CDex 1.51
#
DISCID=1a02e103
DTITLE=Alan Kash - Love Your Country
DYEAR=2005
DGENRE=Country
TTITLE0=Love Your Country
TTITLE1=A Country Pub
TTITLE2=We Ride
EXTD=YEAR: 2005
EXTT0=
EXTT1=
EXTT2=
PLAYORDER=
